<svg width="36" height="36" viewBox="0 0 36 36" fill="none" xmlns="http://www.w3.org/2000/svg">
<path d="M6.86189 6.8625C7.28383 6.44069 7.85602 6.20374 8.45264 6.20374C9.04926 6.20374 9.62146 6.44069 10.0434 6.8625L17.9994 14.8185L25.9554 6.8625C26.3797 6.45265 26.9481 6.22586 27.538 6.23099C28.128 6.23611 28.6923 6.47274 29.1095 6.88991C29.5267 7.30708 29.7633 7.87141 29.7684 8.46135C29.7735 9.0513 29.5467 9.61965 29.1369 10.044L21.1809 18L29.1369 25.956C29.5467 26.3804 29.7735 26.9487 29.7684 27.5387C29.7633 28.1286 29.5267 28.6929 29.1095 29.1101C28.6923 29.5273 28.128 29.7639 27.538 29.769C26.9481 29.7741 26.3797 29.5474 25.9554 29.1375L17.9994 21.1815L10.0434 29.1375C9.61904 29.5474 9.05068 29.7741 8.46074 29.769C7.8708 29.7639 7.30647 29.5273 6.8893 29.1101C6.47213 28.6929 6.2355 28.1286 6.23038 27.5387C6.22525 26.9487 6.45204 26.3804 6.86189 25.956L14.8179 18L6.86189 10.044C6.44008 9.62207 6.20312 9.04987 6.20312 8.45325C6.20312 7.85664 6.44008 7.28444 6.86189 6.8625Z" fill="#FDF7FA"/>
</svg>
