<svg width="18" height="19" viewBox="0 0 18 19" fill="none" xmlns="http://www.w3.org/2000/svg">
<path d="M5.95438 2.34062C5.74348 2.55158 5.625 2.83768 5.625 3.13599C5.625 3.4343 5.74348 3.7204 5.95438 3.93137L11.5231 9.50012L5.95438 15.0689C5.74946 15.281 5.63606 15.5652 5.63863 15.8602C5.64119 16.1552 5.7595 16.4373 5.96809 16.6459C6.17667 16.8545 6.45884 16.9728 6.75381 16.9754C7.04878 16.9779 7.33296 16.8645 7.54513 16.6596L13.9093 10.2955C14.1202 10.0845 14.2386 9.79842 14.2386 9.50012C14.2386 9.20181 14.1202 8.91571 13.9093 8.70474L7.54513 2.34062C7.33417 2.12971 7.04807 2.01123 6.74976 2.01123C6.45145 2.01123 6.16535 2.12971 5.95438 2.34062Z" fill="#FDF7FA"/>
</svg>
